# Blender 4.3.2
# www.blender.org
mtllib chess2.mtl
o Cube
v -73.870644 -5.225585 0.000000
v 73.870644 -0.987841 0.000000
v -73.870644 -0.987841 0.000000
v 73.870644 -5.225585 0.000000
v -73.870644 -5.225585 36.309227
v 73.870644 -0.987841 36.309227
v -73.870644 -0.987841 36.309227
v 73.870644 -5.225585 36.309227
v -73.870644 -0.987841 -36.047394
v 73.870644 -5.225585 -36.047394
v -73.870644 -5.225585 -36.047394
v 73.870644 -0.987841 -36.047394
v -0.579125 -5.225585 -72.094788
v -0.579125 -0.987841 72.094788
v -0.579125 -5.225585 72.094788
v -0.579125 -0.987841 -72.094788
v -0.579125 -5.225585 0.000000
v -0.579125 -5.225585 36.309227
v -0.579125 -5.225585 -36.047394
v -73.870644 -5.225585 54.202007
v 73.870644 -0.987841 54.202007
v -73.870644 -0.987841 54.202007
v 73.870644 -5.225585 54.202007
v -0.579125 -5.225585 54.202007
v -0.579125 -0.987841 54.202007
v -73.870644 -0.987841 -54.071091
v 73.870644 -5.225585 -54.071091
v -73.870644 -5.225585 -54.071091
v 73.870644 -0.987841 -54.071091
v -0.579125 -5.225585 -54.071091
v -0.579125 -0.987841 -54.071091
v 36.645760 -5.225585 72.094788
v 36.645760 -0.987841 -72.094788
v 36.645760 -5.225585 -72.094788
v 36.645760 -0.987841 72.094788
v 36.645760 -5.225585 0.000000
v 36.645760 -5.225585 36.309227
v 36.645760 -5.225585 -36.047394
v 36.645760 -0.987841 54.202007
v 36.645760 -5.225585 54.202007
v 36.645760 -0.987841 -54.071091
v 36.645760 -5.225585 -54.071091
v -37.224884 -5.225585 -72.094788
v -37.224884 -0.987841 72.094788
v -37.224884 -5.225585 0.000000
v -37.224884 -5.225585 36.309227
v -37.224884 -5.225585 -36.047394
v -37.224884 -5.225585 72.094788
v -37.224884 -0.987841 -72.094788
v -37.224884 -5.225585 54.202007
v -37.224884 -0.987841 54.202007
v -37.224884 -5.225585 -54.071091
v -37.224884 -0.987841 -54.071091
v -55.547764 -5.225585 -72.094788
v -55.547764 -0.987841 72.094788
v -55.547764 -5.225585 0.000000
v -55.547764 -5.225585 36.309227
v -55.547764 -5.225585 -36.047394
v -55.547764 -5.225585 54.202007
v -55.547764 -5.225585 -54.071091
v -55.547764 -5.225585 72.094788
v -55.547764 -0.987841 -72.094788
v -55.547764 -0.987841 0.000000
v -55.547764 -0.987841 36.309227
v -55.547764 -0.987841 -36.047394
v -55.547764 -0.987841 54.202007
v -55.547764 -0.987841 -54.071091
v 55.258202 -5.225585 72.094788
v 55.258202 -0.987841 -72.094788
v 55.258202 -0.987841 0.000000
v 55.258202 -0.987841 36.309227
v 55.258202 -0.987841 -36.047394
v 55.258202 -0.987841 54.202007
v 55.258202 -0.987841 -54.071091
v 55.258202 -5.225585 -72.094788
v 55.258202 -0.987841 72.094788
v 55.258202 -5.225585 0.000000
v 55.258202 -5.225585 36.309227
v 55.258202 -5.225585 -36.047394
v 55.258202 -5.225585 54.202007
v 55.258202 -5.225585 -54.071091
v -0.579125 -1.972513 0.000000
v -0.579125 -1.972513 36.309227
v -0.579125 -1.972513 -36.047394
v -0.579125 -1.972513 54.202007
v -0.579125 -1.972513 -54.071091
v 36.645760 -1.972513 0.000000
v 36.645760 -1.972513 36.309227
v 36.645760 -1.972513 -36.047394
v 36.645760 -1.972513 54.202007
v 36.645760 -1.972513 -54.071091
v -37.224884 -1.972513 0.000000
v -37.224884 -1.972513 36.309227
v -37.224884 -1.972513 -36.047394
v -37.224884 -1.972513 54.202007
v -37.224884 -1.972513 -54.071091
v -55.547764 -1.972513 0.000000
v -55.547764 -1.972513 36.309227
v -55.547764 -1.972513 -36.047394
v -55.547764 -1.972513 54.202007
v -55.547764 -1.972513 -54.071091
v 55.258202 -1.972513 0.000000
v 55.258202 -1.972513 36.309227
v 55.258202 -1.972513 -36.047394
v 55.258202 -1.972513 54.202007
v 55.258202 -1.972513 -54.071091
v 73.870644 -0.987841 -61.072319
v 62.848175 -0.987841 -72.094788
v 62.848175 -5.225585 -72.094788
v 73.870644 -5.225585 -61.072319
v 62.848175 -0.987841 72.094788
v 73.870644 -0.987841 61.072319
v 73.870644 -5.225585 61.072319
v 62.848175 -5.225585 72.094788
v -62.848175 -0.987841 -72.094788
v -73.870644 -0.987841 -61.072319
v -73.870644 -5.225585 -61.072319
v -62.848175 -5.225585 -72.094788
v -73.870644 -0.987841 61.072319
v -62.848175 -0.987841 72.094788
v -62.848175 -5.225585 72.094788
v -73.870644 -5.225585 61.072319
v 73.870644 0.316926 0.000000
v -73.870644 0.316926 0.000000
v 73.870644 0.316926 36.309227
v -73.870644 0.316926 36.309227
v -73.870644 0.316926 -36.047394
v 73.870644 0.316926 -36.047394
v -0.579125 0.316926 72.094788
v -0.579125 0.316926 -72.094788
v 73.870644 0.316926 54.202007
v -73.870644 0.316926 54.202007
v -0.579125 0.316926 54.202007
v -73.870644 0.316926 -54.071091
v 73.870644 0.316926 -54.071091
v -0.579125 0.316926 -54.071091
v 36.645760 0.316926 -72.094788
v 36.645760 0.316926 72.094788
v 36.645760 0.316926 54.202007
v 36.645760 0.316926 -54.071091
v -37.224884 0.316926 72.094788
v -37.224884 0.316926 -72.094788
v -37.224884 0.316926 54.202007
v -37.224884 0.316926 -54.071091
v -55.547764 0.316926 72.094788
v -55.547764 0.316926 -72.094788
v -55.547764 0.316926 0.000000
v -55.547764 0.316926 36.309227
v -55.547764 0.316926 -36.047394
v -55.547764 0.316926 54.202007
v -55.547764 0.316926 -54.071091
v 55.258202 0.316926 -72.094788
v 55.258202 0.316926 0.000000
v 55.258202 0.316926 36.309227
v 55.258202 0.316926 -36.047394
v 55.258202 0.316926 54.202007
v 55.258202 0.316926 -54.071091
v 55.258202 0.316926 72.094788
v 73.870644 0.316926 -61.072319
v 62.848175 0.316926 -72.094788
v 62.848175 0.316926 72.094788
v 73.870644 0.316926 61.072319
v -62.848175 0.316926 -72.094788
v -73.870644 0.316926 -61.072319
v -73.870644 0.316926 61.072319
v -62.848175 0.316926 72.094788
vn -0.0000 -1.0000 -0.0000
vn 1.0000 -0.0000 -0.0000
vn -0.7071 -0.0000 0.7071
vn -0.0000 -0.0000 -1.0000
vn -0.0000 -0.0000 1.0000
vn -1.0000 -0.0000 -0.0000
vn 0.7071 -0.0000 -0.7071
vn -0.0000 1.0000 -0.0000
vn 0.7071 -0.0000 0.7071
vn -0.7071 -0.0000 -0.7071
vt 0.064214 0.065665
vt 0.003872 0.041045
vt 0.041045 0.003872
vt 0.381158 0.752994
vt 0.376758 0.630545
vt 0.381159 0.630545
vt 0.407595 0.996128
vt 0.403194 0.958955
vt 0.407595 0.958955
vt 0.434031 0.933761
vt 0.448322 0.909141
vt 0.448322 0.933761
vt 0.434031 0.535458
vt 0.429631 0.509861
vt 0.434031 0.509861
vt 0.460467 0.908164
vt 0.456067 0.845396
vt 0.460467 0.845396
vt 0.381158 0.874561
vt 0.395450 0.752994
vt 0.395450 0.874561
vt 0.368572 0.502117
vt 0.247006 0.439348
vt 0.368572 0.439348
vt 0.407595 0.875444
vt 0.421886 0.752994
vt 0.421886 0.875444
vt 0.517835 0.875003
vt 0.513434 0.814661
vt 0.517835 0.814661
vt 0.407595 0.935786
vt 0.421886 0.935786
vt 0.395450 0.630545
vt 0.247006 0.502117
vt 0.124556 0.439348
vt 0.460467 0.534481
vt 0.456067 0.509861
vt 0.460467 0.509861
vt 0.407595 0.631428
vt 0.403195 0.570644
vt 0.407595 0.570644
vt 0.429355 0.502117
vt 0.429355 0.439348
vt 0.381158 0.935344
vt 0.395450 0.935344
vt 0.407595 0.752994
vt 0.421886 0.631428
vt 0.429355 0.251041
vt 0.368572 0.127457
vt 0.429356 0.127457
vt 0.517835 0.692211
vt 0.521155 0.814661
vt 0.486904 0.572630
vt 0.490224 0.698168
vt 0.486903 0.698168
vt 0.247006 0.251041
vt 0.124556 0.127457
vt 0.247006 0.127457
vt 0.486903 0.821752
vt 0.490224 0.883544
vt 0.486903 0.883544
vt 0.368572 0.251041
vt 0.434031 0.847349
vt 0.448322 0.723764
vt 0.448322 0.847349
vt 0.064214 0.251041
vt 0.003872 0.127457
vt 0.064214 0.127457
vt 0.474759 0.719858
vt 0.474759 0.845396
vt 0.381158 0.958955
vt 0.376758 0.935344
vt 0.517835 0.509861
vt 0.521155 0.570644
vt 0.517835 0.570644
vt 0.124556 0.251041
vt 0.474759 0.509861
vt 0.474759 0.534481
vt 0.395450 0.570203
vt 0.124556 0.502117
vt 0.064214 0.439348
vt 0.482503 0.698168
vt 0.460467 0.596273
vt 0.456067 0.534481
vt 0.490139 0.251041
vt 0.490139 0.127457
vt 0.448322 0.509861
vt 0.448322 0.535458
vt 0.460467 0.933761
vt 0.474759 0.908164
vt 0.474759 0.933761
vt 0.490139 0.041045
vt 0.490139 0.065665
vt 0.429356 0.065665
vt 0.421886 0.570644
vt 0.490139 0.376579
vt 0.376758 0.874561
vt 0.124556 0.376579
vt 0.490224 0.821752
vt 0.403194 0.935786
vt 0.502369 0.820776
vt 0.505690 0.883544
vt 0.502369 0.883544
vt 0.486904 0.509861
vt 0.490224 0.572630
vt 0.533300 0.692653
vt 0.536621 0.814219
vt 0.533300 0.814219
vt 0.429355 0.376579
vt 0.247006 0.376579
vt 0.368572 0.376579
vt 0.434031 0.723764
vt 0.448322 0.598226
vt 0.064214 0.376579
vt 0.003872 0.251041
vt 0.434031 0.598226
vt 0.429631 0.535458
vt 0.521155 0.875003
vt 0.124556 0.065665
vt 0.003872 0.065665
vt 0.434031 0.909141
vt 0.247006 0.065665
vt 0.368572 0.065665
vt 0.533300 0.570203
vt 0.536621 0.692653
vt 0.502369 0.571653
vt 0.505690 0.695238
vt 0.502369 0.695238
vt 0.536621 0.875003
vt 0.533300 0.875003
vt 0.460467 0.719858
vt 0.474759 0.596273
vt 0.456067 0.596273
vt 0.368572 0.003872
vt 0.429356 0.003872
vt 0.124556 0.003872
vt 0.247006 0.003872
vt 0.421886 0.547033
vt 0.064214 0.003872
vt 0.421886 0.958955
vt 0.513434 0.570644
vt 0.505690 0.820776
vt 0.533300 0.509861
vt 0.536621 0.570203
vt 0.502369 0.509861
vt 0.505690 0.571653
vt 0.521155 0.692211
vt 0.429631 0.598226
vt 0.513434 0.692211
vt 0.497969 0.509861
vt 0.403195 0.547033
vt 0.407595 0.547033
vt 0.381159 0.570203
vt 0.395450 0.547033
vt 0.003872 0.464944
vt 0.041045 0.502117
vt 0.381158 0.996128
vt 0.376758 0.958955
vt 0.452966 0.502117
vt 0.490139 0.439348
vt 0.003872 0.376579
vt 0.369014 0.698168
vt 0.308230 0.572630
vt 0.369014 0.572630
vt 0.186664 0.698168
vt 0.064214 0.572630
vt 0.186664 0.572630
vt 0.308230 0.698168
vt 0.064214 0.698168
vt 0.003872 0.572630
vt 0.003872 0.509861
vt 0.064214 0.509861
vt 0.186664 0.509861
vt 0.308230 0.509861
vt 0.369014 0.509861
vt 0.064214 0.821752
vt 0.003872 0.698168
vt 0.369014 0.821752
vt 0.186664 0.821752
vt 0.308230 0.821752
vt 0.064214 0.883544
vt 0.003872 0.821752
vt 0.369014 0.883545
vt 0.186664 0.883545
vt 0.308230 0.883545
vt 0.395450 0.958955
vt 0.421886 0.996128
vt 0.395450 0.509861
vt 0.381159 0.547033
vt 0.381159 0.509861
vt 0.421886 0.509861
vt 0.407595 0.509861
vt 0.497883 0.464944
vt 0.558225 0.440324
vt 0.535056 0.502117
vt 0.946978 0.502117
vt 0.923367 0.502117
vt 0.923367 0.440324
vt 0.558225 0.066641
vt 0.497883 0.041045
vt 0.535056 0.003872
vt 0.984150 0.041045
vt 0.984150 0.066641
vt 0.923367 0.066641
vt 0.862583 0.502117
vt 0.741017 0.440324
vt 0.862583 0.440324
vt 0.741017 0.502117
vt 0.618567 0.440324
vt 0.558225 0.254948
vt 0.497883 0.129410
vt 0.558225 0.129410
vt 0.618567 0.502117
vt 0.984150 0.254948
vt 0.923367 0.129410
vt 0.984150 0.129410
vt 0.497883 0.066641
vt 0.984150 0.378532
vt 0.923367 0.254948
vt 0.558225 0.378532
vt 0.497883 0.254947
vt 0.984150 0.440324
vt 0.923367 0.378532
vt 0.497883 0.378532
vt 0.862583 0.003872
vt 0.923367 0.003872
vt 0.741017 0.066641
vt 0.618567 0.003872
vt 0.741017 0.003872
vt 0.862583 0.066641
vt 0.618567 0.066641
vt 0.558225 0.003872
vt 0.482503 0.509861
vt 0.429631 0.847349
vt 0.497969 0.820776
vt 0.403194 0.875444
vt 0.456067 0.908164
vt 0.376758 0.509861
vt 0.528900 0.509861
vt 0.456067 0.719858
vt 0.376758 0.570203
vt 0.528900 0.814219
vt 0.482503 0.572630
vt 0.376758 0.547033
vt 0.528900 0.570203
vt 0.429631 0.723764
vt 0.528900 0.692653
vt 0.497969 0.695238
vt 0.376758 0.752994
vt 0.429631 0.909141
vt 0.482503 0.821752
vt 0.497969 0.571653
vt 0.403195 0.509861
vt 0.403195 0.752994
vt 0.513434 0.509861
vt 0.403195 0.631428
vt 0.403194 0.996128
vt 0.513434 0.875003
vt 0.521155 0.509861
vt 0.064214 0.502117
vt 0.452967 0.003872
vt 0.490224 0.509861
vt 0.536621 0.509861
vt 0.505690 0.509861
vt 0.003872 0.439348
vt 0.376758 0.996128
vt 0.490139 0.464944
vt 0.003872 0.883544
vt 0.395450 0.996128
vt 0.497883 0.440324
vt 0.558225 0.502117
vt 0.984150 0.464944
vt 0.946978 0.003872
vt 0.497969 0.883544
vt 0.456067 0.933761
vt 0.528900 0.875003
vt 0.429631 0.933761
vt 0.482503 0.883544
s 0
usemtl Material
f 59/1/1 121/2/1 122/3/1
f 2/4/2 125/5/2 6/6/2
f 120/7/3 165/8/3 119/9/3
f 115/10/4 54/11/4 118/12/4
f 69/13/4 160/14/4 108/15/4
f 76/16/5 138/17/5 35/18/5
f 12/19/2 4/20/2 10/21/2
f 10/22/1 77/23/1 79/24/1
f 7/25/6 1/26/6 5/27/6
f 73/28/6 154/29/6 71/30/6
f 22/31/6 5/27/6 20/32/6
f 2/4/2 8/33/2 4/20/2
f 4/34/1 78/35/1 77/23/1
f 55/36/5 166/37/5 120/38/5
f 9/39/6 134/40/6 26/41/6
f 27/42/1 79/24/1 81/43/1
f 29/44/2 10/21/2 27/45/2
f 3/46/6 11/47/6 1/26/6
f 30/48/1 47/49/1 52/50/1
f 70/51/6 103/52/6 71/30/6
f 39/53/4 85/54/4 25/55/4
f 17/56/1 46/57/1 45/58/1
f 51/59/4 100/60/4 66/61/4
f 19/62/1 45/58/1 47/49/1
f 49/63/4 13/64/4 43/65/4
f 24/66/1 48/67/1 50/68/1
f 35/18/5 15/69/5 32/70/5
f 107/71/2 135/72/2 29/44/2
f 74/73/6 104/74/6 72/75/6
f 18/76/1 50/68/1 46/57/1
f 55/36/5 121/77/5 61/78/5
f 6/6/2 23/79/2 8/33/2
f 8/80/1 80/81/1 78/35/1
f 51/59/4 133/82/4 25/55/4
f 44/83/5 145/84/5 55/36/5
f 13/85/1 52/50/1 43/86/1
f 69/13/4 109/87/4 75/88/4
f 111/89/5 68/90/5 114/91/5
f 118/92/1 54/93/1 60/94/1
f 9/39/6 28/95/6 11/47/6
f 34/96/1 30/48/1 13/85/1
f 29/44/2 128/97/2 12/19/2
f 37/98/1 24/66/1 18/76/1
f 25/55/4 95/99/4 51/59/4
f 119/9/6 132/100/6 22/31/6
f 76/16/5 32/70/5 68/90/5
f 41/101/5 106/102/5 74/103/5
f 73/104/4 90/105/4 39/53/4
f 63/106/2 99/107/2 65/108/2
f 42/109/1 19/62/1 30/48/1
f 36/110/1 18/76/1 17/56/1
f 38/111/1 17/56/1 19/62/1
f 16/112/4 34/113/4 13/64/4
f 40/114/1 15/115/1 24/66/1
f 33/116/4 152/117/4 69/13/4
f 43/86/1 60/94/1 54/93/1
f 71/30/6 105/118/6 73/28/6
f 46/57/1 59/1/1 57/119/1
f 50/68/1 61/120/1 59/1/1
f 62/121/4 43/65/4 54/11/4
f 47/49/1 56/122/1 58/123/1
f 45/58/1 57/119/1 56/122/1
f 52/50/1 58/123/1 60/94/1
f 64/124/2 97/125/2 63/106/2
f 53/126/5 86/127/5 31/128/5
f 65/108/2 101/129/2 67/130/2
f 14/131/5 48/132/5 15/69/5
f 14/131/5 141/133/5 44/83/5
f 60/94/1 11/134/1 28/135/1
f 56/122/1 5/136/1 1/137/1
f 58/123/1 1/137/1 11/134/1
f 26/41/6 117/138/6 28/95/6
f 57/119/1 20/139/1 5/136/1
f 119/9/6 20/32/6 122/140/6
f 70/51/6 155/141/6 72/75/6
f 31/128/5 91/142/5 41/101/5
f 66/143/2 98/144/2 64/124/2
f 67/145/5 96/146/5 53/126/5
f 72/75/6 102/147/6 70/51/6
f 44/83/5 61/78/5 48/132/5
f 16/112/4 137/148/4 33/116/4
f 71/30/6 153/149/6 70/51/6
f 53/126/5 151/150/5 67/145/5
f 26/41/6 164/151/6 116/152/6
f 21/153/2 113/154/2 23/79/2
f 114/155/1 80/81/1 113/156/1
f 108/157/7 159/158/7 107/71/7
f 110/159/1 27/42/1 81/43/1
f 75/160/1 42/109/1 34/96/1
f 78/35/1 40/114/1 37/98/1
f 81/43/1 38/111/1 42/109/1
f 77/23/1 37/98/1 36/110/1
f 79/24/1 36/110/1 38/111/1
f 33/116/4 75/88/4 34/113/4
f 80/81/1 32/161/1 40/114/1
f 86/162/8 89/163/8 91/164/8
f 82/165/8 88/166/8 87/167/8
f 84/168/8 87/167/8 89/163/8
f 83/169/8 90/170/8 88/166/8
f 88/166/8 105/171/8 103/172/8
f 89/163/8 102/173/8 104/174/8
f 87/167/8 103/172/8 102/173/8
f 91/164/8 104/174/8 106/175/8
f 93/176/8 85/177/8 83/169/8
f 96/178/8 84/168/8 86/162/8
f 92/179/8 83/169/8 82/165/8
f 94/180/8 82/165/8 84/168/8
f 98/181/8 95/182/8 93/176/8
f 101/183/8 94/180/8 96/178/8
f 97/184/8 93/176/8 92/179/8
f 99/185/8 92/179/8 94/180/8
f 110/186/7 108/157/7 107/71/7
f 120/7/3 122/140/3 121/187/3
f 114/188/9 112/189/9 111/190/9
f 118/191/10 116/152/10 115/192/10
f 107/71/2 27/45/2 110/186/2
f 166/193/8 150/194/8 165/195/8
f 164/196/8 134/197/8 151/198/8
f 156/199/8 161/200/8 162/201/8
f 160/202/8 152/203/8 157/204/8
f 127/205/8 147/206/8 149/207/8
f 124/208/8 148/209/8 147/206/8
f 134/197/8 149/207/8 151/198/8
f 133/210/8 138/211/8 139/212/8
f 126/213/8 150/194/8 148/209/8
f 130/214/8 140/215/8 137/216/8
f 137/216/8 157/204/8 152/203/8
f 139/212/8 158/217/8 156/199/8
f 142/218/8 136/219/8 130/214/8
f 143/220/8 129/221/8 133/210/8
f 146/222/8 144/223/8 142/218/8
f 150/194/8 141/224/8 143/220/8
f 157/204/8 128/225/8 135/226/8
f 153/227/8 125/228/8 123/229/8
f 155/230/8 123/229/8 128/225/8
f 154/231/8 131/232/8 125/228/8
f 39/53/4 156/233/4 73/104/4
f 62/121/4 142/234/4 49/63/4
f 74/103/5 140/235/5 41/101/5
f 22/31/6 126/236/6 7/25/6
f 111/89/5 158/237/5 76/16/5
f 112/189/9 161/238/9 111/190/9
f 64/124/2 150/239/2 66/143/2
f 35/18/5 129/240/5 14/131/5
f 6/6/2 131/241/2 21/153/2
f 67/130/2 149/242/2 65/108/2
f 25/55/4 139/243/4 39/53/4
f 21/153/2 162/244/2 112/189/2
f 63/106/2 148/245/2 64/124/2
f 49/63/4 130/246/4 16/112/4
f 65/108/2 147/247/2 63/106/2
f 41/101/5 136/248/5 31/128/5
f 12/19/2 123/249/2 2/4/2
f 115/10/4 146/250/4 62/121/4
f 66/61/4 143/251/4 51/59/4
f 31/128/5 144/252/5 53/126/5
f 116/152/10 163/253/10 115/192/10
f 7/25/6 124/254/6 3/46/6
f 72/75/6 157/255/6 74/73/6
f 3/46/6 127/256/6 9/39/6
f 122/3/1 20/139/1 59/1/1
f 59/1/1 61/120/1 121/2/1
f 2/4/2 123/249/2 125/5/2
f 120/7/3 166/257/3 165/8/3
f 115/10/4 62/121/4 54/11/4
f 69/13/4 152/117/4 160/14/4
f 76/16/5 158/237/5 138/17/5
f 12/19/2 2/4/2 4/20/2
f 10/22/1 4/34/1 77/23/1
f 7/25/6 3/46/6 1/26/6
f 73/28/6 156/258/6 154/29/6
f 22/31/6 7/25/6 5/27/6
f 2/4/2 6/6/2 8/33/2
f 4/34/1 8/80/1 78/35/1
f 55/36/5 145/84/5 166/37/5
f 9/39/6 127/256/6 134/40/6
f 27/42/1 10/22/1 79/24/1
f 29/44/2 12/19/2 10/21/2
f 3/46/6 9/39/6 11/47/6
f 30/48/1 19/62/1 47/49/1
f 70/51/6 102/147/6 103/52/6
f 39/53/4 90/105/4 85/54/4
f 17/56/1 18/76/1 46/57/1
f 51/59/4 95/99/4 100/60/4
f 19/62/1 17/56/1 45/58/1
f 49/63/4 16/112/4 13/64/4
f 24/66/1 15/115/1 48/67/1
f 35/18/5 14/131/5 15/69/5
f 107/71/2 159/158/2 135/72/2
f 74/73/6 106/259/6 104/74/6
f 18/76/1 24/66/1 50/68/1
f 55/36/5 120/38/5 121/77/5
f 6/6/2 21/153/2 23/79/2
f 8/80/1 23/260/1 80/81/1
f 51/59/4 143/251/4 133/82/4
f 44/83/5 141/133/5 145/84/5
f 13/85/1 30/48/1 52/50/1
f 69/13/4 108/15/4 109/87/4
f 111/89/5 76/16/5 68/90/5
f 28/135/1 117/261/1 60/94/1
f 117/261/1 118/92/1 60/94/1
f 9/39/6 26/41/6 28/95/6
f 34/96/1 42/109/1 30/48/1
f 29/44/2 135/72/2 128/97/2
f 37/98/1 40/114/1 24/66/1
f 25/55/4 85/54/4 95/99/4
f 119/9/6 165/8/6 132/100/6
f 76/16/5 35/18/5 32/70/5
f 41/101/5 91/142/5 106/102/5
f 73/104/4 105/262/4 90/105/4
f 63/106/2 97/125/2 99/107/2
f 42/109/1 38/111/1 19/62/1
f 36/110/1 37/98/1 18/76/1
f 38/111/1 36/110/1 17/56/1
f 16/112/4 33/116/4 34/113/4
f 40/114/1 32/161/1 15/115/1
f 33/116/4 137/148/4 152/117/4
f 43/86/1 52/50/1 60/94/1
f 71/30/6 103/52/6 105/118/6
f 46/57/1 50/68/1 59/1/1
f 50/68/1 48/67/1 61/120/1
f 62/121/4 49/63/4 43/65/4
f 47/49/1 45/58/1 56/122/1
f 45/58/1 46/57/1 57/119/1
f 52/50/1 47/49/1 58/123/1
f 64/124/2 98/144/2 97/125/2
f 53/126/5 96/146/5 86/127/5
f 65/108/2 99/107/2 101/129/2
f 14/131/5 44/83/5 48/132/5
f 14/131/5 129/240/5 141/133/5
f 60/94/1 58/123/1 11/134/1
f 56/122/1 57/119/1 5/136/1
f 58/123/1 56/122/1 1/137/1
f 26/41/6 116/152/6 117/138/6
f 57/119/1 59/1/1 20/139/1
f 119/9/6 22/31/6 20/32/6
f 70/51/6 153/149/6 155/141/6
f 31/128/5 86/127/5 91/142/5
f 66/143/2 100/263/2 98/144/2
f 67/145/5 101/264/5 96/146/5
f 72/75/6 104/74/6 102/147/6
f 44/83/5 55/36/5 61/78/5
f 16/112/4 130/246/4 137/148/4
f 71/30/6 154/29/6 153/149/6
f 53/126/5 144/252/5 151/150/5
f 26/41/6 134/40/6 164/151/6
f 21/153/2 112/189/2 113/154/2
f 68/265/1 80/81/1 114/155/1
f 80/81/1 23/260/1 113/156/1
f 108/157/7 160/266/7 159/158/7
f 81/43/1 75/160/1 109/267/1
f 109/267/1 110/159/1 81/43/1
f 75/160/1 81/43/1 42/109/1
f 78/35/1 80/81/1 40/114/1
f 81/43/1 79/24/1 38/111/1
f 77/23/1 78/35/1 37/98/1
f 79/24/1 77/23/1 36/110/1
f 33/116/4 69/13/4 75/88/4
f 80/81/1 68/265/1 32/161/1
f 86/162/8 84/168/8 89/163/8
f 82/165/8 83/169/8 88/166/8
f 84/168/8 82/165/8 87/167/8
f 83/169/8 85/177/8 90/170/8
f 88/166/8 90/170/8 105/171/8
f 89/163/8 87/167/8 102/173/8
f 87/167/8 88/166/8 103/172/8
f 91/164/8 89/163/8 104/174/8
f 93/176/8 95/182/8 85/177/8
f 96/178/8 94/180/8 84/168/8
f 92/179/8 93/176/8 83/169/8
f 94/180/8 92/179/8 82/165/8
f 98/181/8 100/268/8 95/182/8
f 101/183/8 99/185/8 94/180/8
f 97/184/8 98/181/8 93/176/8
f 99/185/8 97/184/8 92/179/8
f 110/186/7 109/269/7 108/157/7
f 120/7/3 119/9/3 122/140/3
f 114/188/9 113/154/9 112/189/9
f 118/191/10 117/138/10 116/152/10
f 107/71/2 29/44/2 27/45/2
f 145/270/8 150/194/8 166/193/8
f 150/194/8 132/271/8 165/195/8
f 151/198/8 146/222/8 163/272/8
f 163/272/8 164/196/8 151/198/8
f 162/201/8 131/232/8 156/199/8
f 156/199/8 158/217/8 161/200/8
f 135/226/8 159/273/8 157/204/8
f 159/273/8 160/202/8 157/204/8
f 127/205/8 124/208/8 147/206/8
f 124/208/8 126/213/8 148/209/8
f 134/197/8 127/205/8 149/207/8
f 133/210/8 129/221/8 138/211/8
f 126/213/8 132/271/8 150/194/8
f 130/214/8 136/219/8 140/215/8
f 137/216/8 140/215/8 157/204/8
f 139/212/8 138/211/8 158/217/8
f 142/218/8 144/223/8 136/219/8
f 143/220/8 141/224/8 129/221/8
f 146/222/8 151/198/8 144/223/8
f 150/194/8 145/270/8 141/224/8
f 157/204/8 155/230/8 128/225/8
f 153/227/8 154/231/8 125/228/8
f 155/230/8 153/227/8 123/229/8
f 154/231/8 156/199/8 131/232/8
f 39/53/4 139/243/4 156/233/4
f 62/121/4 146/250/4 142/234/4
f 74/103/5 157/274/5 140/235/5
f 22/31/6 132/100/6 126/236/6
f 111/89/5 161/275/5 158/237/5
f 112/189/9 162/244/9 161/238/9
f 64/124/2 148/245/2 150/239/2
f 35/18/5 138/17/5 129/240/5
f 6/6/2 125/5/2 131/241/2
f 67/130/2 151/276/2 149/242/2
f 25/55/4 133/82/4 139/243/4
f 21/153/2 131/241/2 162/244/2
f 63/106/2 147/247/2 148/245/2
f 49/63/4 142/234/4 130/246/4
f 65/108/2 149/242/2 147/247/2
f 41/101/5 140/235/5 136/248/5
f 12/19/2 128/97/2 123/249/2
f 115/10/4 163/277/4 146/250/4
f 66/61/4 150/278/4 143/251/4
f 31/128/5 136/248/5 144/252/5
f 116/152/10 164/151/10 163/253/10
f 7/25/6 126/236/6 124/254/6
f 72/75/6 155/141/6 157/255/6
f 3/46/6 124/254/6 127/256/6
