# Blender 4.0.2
# www.blender.org
o Water
v -1.666667 -0.250000 -1.666667
v 0.000000 -0.250000 -1.666667
v 1.666667 -0.250000 -1.666667
v -3.333333 -0.250000 1.666667
v -3.333333 -0.250000 0.000000
v -3.333333 -0.250000 -1.666667
v 3.333333 -0.250000 1.666667
v 3.333333 -0.250000 0.000000
v 3.333333 -0.250000 -1.666667
v -1.666667 -0.250000 1.666667
v 0.000000 -0.250000 1.666667
v 1.666667 -0.250000 1.666667
v -3.333333 -0.250000 0.833333
v -3.333333 -0.250000 -0.833333
v 3.333333 -0.250000 0.833333
v 3.333333 -0.250000 -0.833333
v -2.500000 -0.250000 1.666667
v -2.500000 -0.250000 -1.666667
v -0.833333 -0.250000 1.666667
v -0.833333 -0.250000 -1.666667
v 0.833333 -0.250000 1.666667
v 0.833333 -0.250000 -1.666667
v 2.500000 -0.250000 1.666667
v 2.500000 -0.250000 -1.666667
vn -0.0000 1.0000 -0.0000
vt 0.000000 0.000000
s 0
f 23/1/1 16/1/1 24/1/1
f 13/1/1 4/1/1 17/1/1
f 13/1/1 17/1/1 10/1/1
f 5/1/1 13/1/1 10/1/1
f 5/1/1 10/1/1 19/1/1
f 18/1/1 6/1/1 14/1/1
f 14/1/1 5/1/1 19/1/1
f 14/1/1 19/1/1 11/1/1
f 1/1/1 18/1/1 14/1/1
f 20/1/1 1/1/1 14/1/1
f 14/1/1 11/1/1 21/1/1
f 14/1/1 21/1/1 12/1/1
f 2/1/1 20/1/1 14/1/1
f 22/1/1 2/1/1 14/1/1
f 14/1/1 12/1/1 23/1/1
f 23/1/1 7/1/1 15/1/1
f 23/1/1 15/1/1 8/1/1
f 22/1/1 14/1/1 23/1/1
f 3/1/1 22/1/1 23/1/1
f 23/1/1 8/1/1 16/1/1
f 16/1/1 9/1/1 24/1/1
f 24/1/1 3/1/1 23/1/1
