# Blender 4.0.2
# www.blender.org
mtllib amogus.mtl
o Body
v 0.000000 0.000000 -1.000000
v -0.866025 0.000000 -0.500000
v -0.866025 0.000000 0.500000
v 0.000000 0.000000 1.000000
v 0.866025 0.000000 0.500000
v 0.866025 0.000000 -0.500000
v 0.000000 3.000000 -0.422650
v 0.000000 2.500000 -1.000000
v 0.000000 2.853553 -0.830898
v -0.866025 2.500000 -0.500000
v -0.366025 3.000000 -0.211325
v -0.719579 2.853553 -0.415449
v -0.866025 2.500000 0.500000
v -0.366025 3.000000 0.211325
v -0.719579 2.853553 0.415449
v 0.000000 2.500000 1.000000
v 0.000000 3.000000 0.422650
v 0.000000 2.853553 0.830898
v 0.866025 2.500000 0.500000
v 0.366025 3.000000 0.211325
v 0.719579 2.853553 0.415449
v 0.866025 2.500000 -0.500000
v 0.366025 3.000000 -0.211325
v 0.719579 2.853553 -0.415449
vn 0.5000 -0.0000 -0.8660
vn 1.0000 -0.0000 -0.0000
vn -0.5000 -0.0000 -0.8660
vn -1.0000 -0.0000 -0.0000
vn 0.5000 -0.0000 0.8660
vn -0.5000 -0.0000 0.8660
vn -0.0000 -1.0000 -0.0000
vn -0.1913 0.9239 -0.3314
vn -0.4619 0.3827 -0.8001
vn -0.3827 0.9239 -0.0000
vn -0.9239 0.3827 -0.0000
vn -0.1913 0.9239 0.3314
vn -0.4619 0.3827 0.8001
vn 0.1913 0.9239 0.3314
vn 0.4619 0.3827 0.8001
vn 0.3827 0.9239 -0.0000
vn 0.9239 0.3827 -0.0000
vn 0.1913 0.9239 -0.3314
vn 0.4619 0.3827 -0.8001
vn -0.0000 1.0000 -0.0000
vt 0.202608 0.901937
vt 0.403803 0.972939
vt 0.308986 0.752300
vt 0.189629 0.665478
vt 0.230454 0.124688
vt 0.320228 0.286795
vt 0.683489 0.622506
vt 0.410992 0.666038
vt 0.458307 0.466728
vt 0.142353 0.570768
vt 0.120780 0.026197
vt 0.000057 0.000057
vt 0.080522 0.565709
vt 0.460191 0.148810
vt 0.000057 0.725951
vt 0.319642 0.289249
vt 0.205296 0.909015
vt 0.136540 0.780790
vt 0.090671 0.878617
vt 0.105784 0.794041
vt 0.161077 0.840068
vt 0.075709 0.999943
vt 0.053723 0.729995
vt 0.088451 0.730218
vt 0.092066 0.623760
vt 0.102936 0.674919
vt 0.135509 0.622771
vt 0.126905 0.674382
vt 0.166947 0.696840
vt 0.143774 0.716596
vt 0.369205 0.040247
s 0
usemtl Marble
f 6/1/1 1/2/1 8/3/1
f 22/4/2 5/5/2 6/6/2
f 2/7/3 10/8/3 1/2/3
f 13/9/4 10/8/4 2/7/4
f 10/8/3 8/3/3 1/2/3
f 5/5/5 19/10/5 4/11/5
f 3/12/6 4/11/6 16/13/6
f 3/14/4 13/9/4 2/7/4
f 22/4/2 19/10/2 5/5/2
f 16/13/6 13/15/6 3/12/6
f 1/2/7 5/16/7 3/14/7
f 19/10/5 16/13/5 4/11/5
f 8/17/1 22/4/1 6/6/1
f 7/18/8 12/19/8 11/20/8
f 9/21/9 10/22/9 12/19/9
f 11/20/10 15/23/10 14/24/10
f 12/19/11 13/15/11 15/23/11
f 14/24/12 18/25/12 17/26/12
f 15/23/13 16/13/13 18/25/13
f 17/26/14 21/27/14 20/28/14
f 18/25/15 19/10/15 21/27/15
f 20/28/16 24/29/16 23/30/16
f 21/27/17 22/4/17 24/29/17
f 23/30/18 9/21/18 7/18/18
f 24/29/19 8/17/19 9/21/19
f 14/24/20 20/28/20 7/18/20
f 3/14/7 2/7/7 1/2/7
f 1/2/7 6/1/7 5/16/7
f 5/16/7 4/31/7 3/14/7
f 7/18/8 9/21/8 12/19/8
f 9/21/9 8/17/9 10/22/9
f 11/20/10 12/19/10 15/23/10
f 12/19/11 10/22/11 13/15/11
f 14/24/12 15/23/12 18/25/12
f 15/23/13 13/15/13 16/13/13
f 17/26/14 18/25/14 21/27/14
f 18/25/15 16/13/15 19/10/15
f 20/28/16 21/27/16 24/29/16
f 21/27/17 19/10/17 22/4/17
f 23/30/18 24/29/18 9/21/18
f 24/29/19 22/4/19 8/17/19
f 7/18/20 11/20/20 14/24/20
f 14/24/20 17/26/20 20/28/20
f 20/28/20 23/30/20 7/18/20
o Backpack
v -1.366025 0.500000 0.500000
v -1.366025 2.500000 0.500000
v -1.366025 0.500000 -0.500000
v -1.366025 2.500000 -0.500000
v -0.866025 0.500000 0.500000
v -0.866025 2.500000 0.500000
v -0.866025 0.500000 -0.500000
v -0.866025 2.500000 -0.500000
vn -1.0000 -0.0000 -0.0000
vn -0.0000 -0.0000 -1.0000
vn 1.0000 -0.0000 -0.0000
vn -0.0000 -0.0000 1.0000
vn -0.0000 -1.0000 -0.0000
vn -0.0000 1.0000 -0.0000
vt 0.625000 0.000000
vt 0.375000 0.250000
vt 0.375000 0.000000
vt 0.625000 0.250000
vt 0.375000 0.500000
vt 0.625000 0.500000
vt 0.375000 0.750000
vt 0.625000 0.750000
vt 0.375000 1.000000
vt 0.125000 0.750000
vt 0.125000 0.500000
vt 0.875000 0.500000
vt 0.625000 1.000000
vt 0.875000 0.750000
s 0
usemtl Marble
f 26/32/21 27/33/21 25/34/21
f 28/35/22 31/36/22 27/33/22
f 32/37/23 29/38/23 31/36/23
f 30/39/24 25/40/24 29/38/24
f 31/36/25 25/41/25 27/42/25
f 28/43/26 30/39/26 32/37/26
f 26/32/21 28/35/21 27/33/21
f 28/35/22 32/37/22 31/36/22
f 32/37/23 30/39/23 29/38/23
f 30/39/24 26/44/24 25/40/24
f 31/36/25 29/38/25 25/41/25
f 28/43/26 26/45/26 30/39/26
o Visor
v 0.866025 1.375000 0.500000
v 0.866025 2.125000 0.500000
v 0.866025 1.375000 -0.500000
v 0.866025 2.125000 -0.500000
v 1.366025 1.375000 0.500000
v 1.366025 2.125000 0.500000
v 1.366025 1.375000 -0.500000
v 1.366025 2.125000 -0.500000
vn -1.0000 -0.0000 -0.0000
vn -0.0000 -0.0000 -1.0000
vn 1.0000 -0.0000 -0.0000
vn -0.0000 -0.0000 1.0000
vn -0.0000 -1.0000 -0.0000
vn -0.0000 1.0000 -0.0000
vt 0.625000 0.000000
vt 0.375000 0.250000
vt 0.375000 0.000000
vt 0.625000 0.250000
vt 0.375000 0.500000
vt 0.625000 0.500000
vt 0.375000 0.750000
vt 0.625000 0.750000
vt 0.375000 1.000000
vt 0.125000 0.750000
vt 0.125000 0.500000
vt 0.875000 0.500000
vt 0.625000 1.000000
vt 0.875000 0.750000
s 0
usemtl Glass
f 34/46/27 35/47/27 33/48/27
f 36/49/28 39/50/28 35/47/28
f 40/51/29 37/52/29 39/50/29
f 38/53/30 33/54/30 37/52/30
f 39/50/31 33/55/31 35/56/31
f 36/57/32 38/53/32 40/51/32
f 34/46/27 36/49/27 35/47/27
f 36/49/28 40/51/28 39/50/28
f 40/51/29 38/53/29 37/52/29
f 38/53/30 34/58/30 33/54/30
f 39/50/31 37/52/31 33/55/31
f 36/57/32 34/59/32 38/53/32
