# Blender 4.0.2
# www.blender.org
o Ground
v -5.000000 0.000000 5.000000
v 5.000000 0.000000 5.000000
v -5.000000 0.000000 -5.000000
v 5.000000 0.000000 -5.000000
v -5.000000 0.000000 -2.500000
v -5.000000 0.000000 2.500000
v 5.000000 0.000000 2.500000
v 5.000000 0.000000 -2.500000
v 4.166667 0.000000 -2.500000
v 4.166667 0.000000 2.500000
v -4.166667 0.000000 -2.500000
v -4.166667 0.000000 2.500000
v -3.333333 -1.500000 1.666667
v -3.333333 -0.500000 0.000000
v -3.333333 -1.500000 -1.666667
v -1.666667 -0.500000 1.666667
v -1.666667 -1.500000 0.000000
v -1.666667 0.000000 -1.666667
v 0.000000 -0.500000 1.666667
v 0.000000 -1.500000 0.000000
v 0.000000 0.000000 -1.666667
v 1.666667 -1.000000 1.666667
v 1.666667 -1.000000 0.000000
v 1.666667 0.000000 -1.666667
v 3.333333 -0.500000 1.666667
v 3.333333 -0.500000 0.000000
v 3.333333 -0.500000 -1.666667
v -3.333333 0.000000 1.666667
v -3.333333 0.000000 0.000000
v -3.333333 0.000000 -1.666667
v 3.333333 0.000000 1.666667
v 3.333333 0.000000 0.000000
v 3.333333 0.000000 -1.666667
v -1.666667 0.000000 1.666667
v -1.666667 -0.500000 -1.666667
v 0.000000 0.000000 1.666667
v 0.000000 -0.500000 -1.666667
v 1.666667 0.000000 1.666667
v 1.666667 -1.000000 -1.666667
v 1.666667 -0.500000 1.666667
v 1.666667 -0.500000 0.000000
v 1.666667 -0.500000 -1.666667
v -3.333333 -0.500000 1.666667
v -3.333333 -1.000000 0.000000
v -3.333333 -0.500000 -1.666667
v -1.666667 -1.000000 1.666667
v -1.666667 -1.000000 -1.666667
v 0.000000 -1.500000 1.666667
v 0.000000 -1.500000 -1.666667
v 0.000000 -1.000000 1.666667
v 0.000000 -1.000000 0.000000
v 0.000000 -1.000000 -1.666667
v -3.333333 -1.000000 1.666667
v -3.333333 -1.500000 0.000000
v -3.333333 -1.000000 -1.666667
v -1.666667 -1.500000 1.666667
v -1.666667 -1.500000 -1.666667
v -3.333333 0.000000 2.500000
v -3.333333 0.000000 -2.500000
v -1.666667 0.000000 2.500000
v -1.666667 0.000000 -2.500000
v 0.000000 0.000000 2.500000
v 0.000000 0.000000 -2.500000
v 1.666667 0.000000 2.500000
v 1.666667 0.000000 -2.500000
v 3.333333 0.000000 2.500000
v 3.333333 0.000000 -2.500000
v -2.500000 0.000000 1.666667
v -2.500000 0.000000 -1.666667
v -0.833333 0.000000 1.666667
v -0.833333 0.000000 -1.666667
v 0.833333 0.000000 1.666667
v 0.833333 0.000000 -1.666667
v 2.500000 0.000000 1.666667
v 2.500000 0.000000 -1.666667
v 4.166667 0.000000 -2.500000
v 4.166667 0.000000 2.500000
v 2.500000 0.000000 -2.500000
v 2.500000 0.000000 2.500000
v 0.833333 0.000000 -2.500000
v 0.833333 0.000000 2.500000
v -0.833333 0.000000 -2.500000
v -0.833333 0.000000 2.500000
v -2.500000 0.000000 -2.500000
v -2.500000 0.000000 2.500000
v -4.166667 0.000000 -2.500000
v -4.166667 0.000000 2.500000
vn -0.0000 1.0000 -0.0000
vn 1.0000 -0.0000 -0.0000
vn -1.0000 -0.0000 -0.0000
vn -0.0000 -0.0000 -1.0000
vn -0.0000 -0.0000 1.0000
vt 1.000000 0.750000
vt 0.916667 0.250000
vt 1.000000 0.250000
vt 1.000000 1.000000
vt 0.000000 0.750000
vt 0.083333 0.750000
vt 0.000000 0.000000
vt 0.083333 0.250000
vt 0.166667 0.750000
vt 0.166667 0.333333
vt 0.333333 0.250000
vt 0.250000 0.333333
vt 0.250000 0.250000
vt 0.333333 0.333333
vt 0.166667 0.500000
vt 0.333333 0.500000
vt 0.166667 0.666667
vt 0.500000 0.250000
vt 0.416667 0.333333
vt 0.416667 0.250000
vt 0.500000 0.333333
vt 0.500000 0.500000
vt 0.333333 0.666667
vt 0.666667 0.250000
vt 0.583333 0.333333
vt 0.583333 0.250000
vt 0.666667 0.333333
vt 0.666667 0.500000
vt 0.500000 0.666667
vt 0.833333 0.250000
vt 0.750000 0.333333
vt 0.750000 0.250000
vt 0.833333 0.333333
vt 0.833333 0.500000
vt 0.666667 0.666667
vt 0.833333 0.666667
vt 0.250000 0.666667
vt 0.416667 0.666667
vt 0.583333 0.666667
vt 0.750000 0.666667
vt 0.666667 0.750000
vt 0.750000 0.750000
vt 0.500000 0.750000
vt 0.583333 0.750000
vt 0.333333 0.750000
vt 0.416667 0.750000
vt 0.250000 0.750000
vt 0.166667 0.250000
vt 0.916667 0.750000
vt 0.000000 1.000000
vt 0.000000 0.250000
vt 1.000000 0.000000
vt 0.833333 0.750000
s 0
f 8/1/1 10/2/1 7/3/1
f 4/4/1 5/5/1 11/6/1
f 10/2/1 1/7/1 7/3/1
f 5/5/1 12/8/1 11/6/1
f 59/9/1 87/8/1 28/10/1
f 60/11/1 68/12/1 85/13/1
f 56/14/1 54/15/1 13/10/1
f 17/16/1 15/17/1 54/15/1
f 62/18/1 70/19/1 83/20/1
f 48/21/1 17/16/1 56/14/1
f 20/22/1 57/23/1 17/16/1
f 64/24/1 72/25/1 81/26/1
f 22/27/1 51/22/1 50/21/1
f 23/28/1 52/29/1 51/22/1
f 66/30/1 74/31/1 79/32/1
f 25/33/1 41/28/1 40/27/1
f 26/34/1 42/35/1 41/28/1
f 14/15/2 28/10/2 43/10/2
f 45/17/2 29/15/2 14/15/2
f 25/33/3 32/34/3 26/34/3
f 26/34/3 33/36/3 27/36/3
f 43/10/4 68/12/4 34/14/4
f 35/23/5 69/37/5 30/17/5
f 16/14/4 70/19/4 36/21/4
f 37/29/5 71/38/5 18/23/5
f 19/21/4 72/25/4 38/27/4
f 42/35/5 73/39/5 21/29/5
f 40/27/4 74/31/4 31/33/4
f 27/36/5 75/40/5 24/35/5
f 22/27/3 41/28/3 23/28/3
f 23/28/3 42/35/3 39/35/3
f 44/15/2 43/10/2 53/10/2
f 55/17/2 14/15/2 44/15/2
f 53/10/4 16/14/4 46/14/4
f 47/23/5 45/17/5 55/17/5
f 46/14/4 19/21/4 50/21/4
f 52/29/5 35/23/5 47/23/5
f 50/21/4 40/27/4 22/27/4
f 39/35/5 37/29/5 52/29/5
f 48/21/3 51/22/3 20/22/3
f 20/22/3 52/29/3 49/29/3
f 54/15/2 53/10/2 13/10/2
f 15/17/2 44/15/2 54/15/2
f 13/10/4 46/14/4 56/14/4
f 57/23/5 55/17/5 15/17/5
f 56/14/4 50/21/4 48/21/4
f 49/29/5 47/23/5 57/23/5
f 32/34/1 31/33/1 77/2/1
f 75/40/1 65/41/1 24/35/1
f 33/36/1 78/42/1 75/40/1
f 79/32/1 38/27/1 64/24/1
f 73/39/1 63/43/1 21/29/1
f 24/35/1 80/44/1 73/39/1
f 81/26/1 36/21/1 62/18/1
f 71/38/1 61/45/1 18/23/1
f 21/29/1 82/46/1 71/38/1
f 83/20/1 34/14/1 60/11/1
f 69/37/1 59/9/1 30/17/1
f 69/37/1 61/45/1 84/47/1
f 85/13/1 28/10/1 58/48/1
f 8/1/1 9/49/1 10/2/1
f 9/49/1 8/1/1 4/4/1
f 4/4/1 3/50/1 5/5/1
f 11/6/1 9/49/1 4/4/1
f 12/8/1 6/51/1 1/7/1
f 1/7/1 2/52/1 7/3/1
f 10/2/1 12/8/1 1/7/1
f 5/5/1 6/51/1 12/8/1
f 29/15/1 30/17/1 59/9/1
f 59/9/1 86/6/1 87/8/1
f 87/8/1 58/48/1 28/10/1
f 28/10/1 29/15/1 59/9/1
f 60/11/1 34/14/1 68/12/1
f 56/14/1 17/16/1 54/15/1
f 17/16/1 57/23/1 15/17/1
f 62/18/1 36/21/1 70/19/1
f 48/21/1 20/22/1 17/16/1
f 20/22/1 49/29/1 57/23/1
f 64/24/1 38/27/1 72/25/1
f 22/27/1 23/28/1 51/22/1
f 23/28/1 39/35/1 52/29/1
f 66/30/1 31/33/1 74/31/1
f 25/33/1 26/34/1 41/28/1
f 26/34/1 27/36/1 42/35/1
f 14/15/2 29/15/2 28/10/2
f 45/17/2 30/17/2 29/15/2
f 25/33/3 31/33/3 32/34/3
f 26/34/3 32/34/3 33/36/3
f 34/14/4 16/14/4 43/10/4
f 43/10/4 28/10/4 68/12/4
f 30/17/5 45/17/5 35/23/5
f 35/23/5 18/23/5 69/37/5
f 36/21/4 19/21/4 16/14/4
f 16/14/4 34/14/4 70/19/4
f 18/23/5 35/23/5 37/29/5
f 37/29/5 21/29/5 71/38/5
f 38/27/4 40/27/4 19/21/4
f 19/21/4 36/21/4 72/25/4
f 21/29/5 37/29/5 42/35/5
f 42/35/5 24/35/5 73/39/5
f 31/33/4 25/33/4 40/27/4
f 40/27/4 38/27/4 74/31/4
f 24/35/5 42/35/5 27/36/5
f 27/36/5 33/36/5 75/40/5
f 22/27/3 40/27/3 41/28/3
f 23/28/3 41/28/3 42/35/3
f 44/15/2 14/15/2 43/10/2
f 55/17/2 45/17/2 14/15/2
f 53/10/4 43/10/4 16/14/4
f 47/23/5 35/23/5 45/17/5
f 46/14/4 16/14/4 19/21/4
f 52/29/5 37/29/5 35/23/5
f 50/21/4 19/21/4 40/27/4
f 39/35/5 42/35/5 37/29/5
f 48/21/3 50/21/3 51/22/3
f 20/22/3 51/22/3 52/29/3
f 54/15/2 44/15/2 53/10/2
f 15/17/2 55/17/2 44/15/2
f 13/10/4 53/10/4 46/14/4
f 57/23/5 47/23/5 55/17/5
f 56/14/4 46/14/4 50/21/4
f 49/29/5 52/29/5 47/23/5
f 77/2/1 76/49/1 67/53/1
f 77/2/1 67/53/1 33/36/1
f 31/33/1 66/30/1 77/2/1
f 77/2/1 33/36/1 32/34/1
f 75/40/1 78/42/1 65/41/1
f 33/36/1 67/53/1 78/42/1
f 79/32/1 74/31/1 38/27/1
f 73/39/1 80/44/1 63/43/1
f 24/35/1 65/41/1 80/44/1
f 81/26/1 72/25/1 36/21/1
f 71/38/1 82/46/1 61/45/1
f 21/29/1 63/43/1 82/46/1
f 83/20/1 70/19/1 34/14/1
f 69/37/1 84/47/1 59/9/1
f 69/37/1 18/23/1 61/45/1
f 85/13/1 68/12/1 28/10/1
